<mxfile>
  <diagram id="xCknaC995fOig1GsyrMW" name="Page-1">
    <mxGraphModel dx="1456" dy="513" grid="1" gridSize="10" guides="1" tooltips="1" connect="1" arrows="1" fold="1" page="1" pageScale="1" pageWidth="850" pageHeight="1100" math="0" shadow="0">
      <root>
        <mxCell id="0" />
        <mxCell id="1" parent="0" />
        <mxCell id="2" value="Start" style="ellipse;whiteSpace=wrap;html=1;" parent="1" vertex="1">
          <mxGeometry x="190" y="40" width="120" height="60" as="geometry" />
        </mxCell>
        <mxCell id="3" value="ประกาศตัวแปร Name, Age" style="rectangle;whiteSpace=wrap;html=1;" parent="1" vertex="1">
          <mxGeometry x="160" y="130" width="180" height="60" as="geometry" />
        </mxCell>
        <mxCell id="4" value="แสดงข้อความ &#39;Enter your name:&#39;" style="parallelogram;whiteSpace=wrap;html=1;" parent="1" vertex="1">
          <mxGeometry x="140" y="220" width="220" height="60" as="geometry" />
        </mxCell>
        <mxCell id="5" value="รับค่าชื่อจากผู้ใช้" style="parallelogram;whiteSpace=wrap;html=1;" parent="1" vertex="1">
          <mxGeometry x="140" y="310" width="220" height="60" as="geometry" />
        </mxCell>
        <mxCell id="6" value="แสดงข้อความ &#39;Enter your age:&#39;" style="parallelogram;whiteSpace=wrap;html=1;" parent="1" vertex="1">
          <mxGeometry x="140" y="400" width="220" height="60" as="geometry" />
        </mxCell>
        <mxCell id="7" value="รับค่าอายุจากผู้ใช้" style="parallelogram;whiteSpace=wrap;html=1;" parent="1" vertex="1">
          <mxGeometry x="140" y="490" width="220" height="60" as="geometry" />
        </mxCell>
        <mxCell id="8" value="แสดงข้อความ &#39;-----&#39;" style="parallelogram;whiteSpace=wrap;html=1;" parent="1" vertex="1">
          <mxGeometry x="140" y="580" width="220" height="60" as="geometry" />
        </mxCell>
        <mxCell id="9" value="แสดงข้อความ &#39;Hello [Name]&#39;" style="parallelogram;whiteSpace=wrap;html=1;" parent="1" vertex="1">
          <mxGeometry x="140" y="670" width="220" height="60" as="geometry" />
        </mxCell>
        <mxCell id="10" value="แสดงข้อความ &#39;Age = [Age]&#39;" style="parallelogram;whiteSpace=wrap;html=1;" parent="1" vertex="1">
          <mxGeometry x="140" y="760" width="220" height="60" as="geometry" />
        </mxCell>
        <mxCell id="11" value="Stop" style="ellipse;whiteSpace=wrap;html=1;" parent="1" vertex="1">
          <mxGeometry x="190" y="860" width="120" height="60" as="geometry" />
        </mxCell>
        <mxCell id="12" parent="1" source="2" target="3" edge="1">
          <mxGeometry relative="1" as="geometry" />
        </mxCell>
        <mxCell id="13" parent="1" source="3" target="4" edge="1">
          <mxGeometry relative="1" as="geometry" />
        </mxCell>
        <mxCell id="14" parent="1" source="4" target="5" edge="1">
          <mxGeometry relative="1" as="geometry" />
        </mxCell>
        <mxCell id="15" parent="1" source="5" target="6" edge="1">
          <mxGeometry relative="1" as="geometry" />
        </mxCell>
        <mxCell id="16" parent="1" source="6" target="7" edge="1">
          <mxGeometry relative="1" as="geometry" />
        </mxCell>
        <mxCell id="17" parent="1" source="7" target="8" edge="1">
          <mxGeometry relative="1" as="geometry" />
        </mxCell>
        <mxCell id="18" parent="1" source="8" target="9" edge="1">
          <mxGeometry relative="1" as="geometry" />
        </mxCell>
        <mxCell id="19" parent="1" source="9" target="10" edge="1">
          <mxGeometry relative="1" as="geometry" />
        </mxCell>
        <mxCell id="20" parent="1" source="10" target="11" edge="1">
          <mxGeometry relative="1" as="geometry" />
        </mxCell>
      </root>
    </mxGraphModel>
  </diagram>
</mxfile>
